<svg width="150" height="106" viewBox="0 0 150 106" fill="none" xmlns="http://www.w3.org/2000/svg">
<path d="M187.572 105.862C187.572 59.9823 150.38 22.7896 104.5 22.7896C58.6205 22.7896 21.4277 59.9823 21.4277 105.862" stroke="#FBF5EB"/>
<path d="M194.382 105.862C194.382 56.2216 154.14 15.9802 104.5 15.9802C54.8598 15.9802 14.6184 56.2216 14.6184 105.862" stroke="#FBF5EB"/>
<path d="M201.191 105.862C201.191 52.461 157.901 9.17102 104.5 9.17102C51.0993 9.17102 7.80933 52.461 7.80933 105.862" stroke="#FBF5EB"/>
<path d="M208 104.5C208 47.3385 161.661 1 104.5 1C47.3385 1 1 47.3385 1 104.5" stroke="#FBF5EB"/>
<path d="M133.099 105.862C133.099 90.0673 120.295 77.2632 104.5 77.2632C88.7054 77.2632 75.9014 90.0673 75.9014 105.862" stroke="#FBF5EB"/>
<path d="M126.289 105.862C126.289 93.8279 116.534 84.0724 104.5 84.0724C92.4659 84.0724 82.7104 93.8279 82.7104 105.862" stroke="#FBF5EB"/>
<path d="M119.48 105.862C119.48 97.5884 112.773 90.8815 104.5 90.8815C96.2267 90.8815 89.5198 97.5884 89.5198 105.862" stroke="#FBF5EB"/>
<path d="M112.671 105.862C112.671 101.349 109.013 97.6908 104.5 97.6908C99.9872 97.6908 96.3289 101.349 96.3289 105.862" stroke="#FBF5EB"/>
<path d="M146.717 105.862C146.717 82.546 127.816 63.6448 104.5 63.6448C81.1842 63.6448 62.283 82.546 62.283 105.862" stroke="#FBF5EB"/>
<path d="M139.908 105.862C139.908 86.3066 124.055 70.454 104.5 70.454C84.9447 70.454 69.092 86.3066 69.092 105.862" stroke="#FBF5EB"/>
<path d="M153.526 105.862C153.526 78.7854 131.576 56.8356 104.5 56.8356C77.4235 56.8356 55.4736 78.7854 55.4736 105.862" stroke="#FBF5EB"/>
<path d="M160.336 105.862C160.336 75.0248 135.337 50.0264 104.5 50.0264C73.663 50.0264 48.6646 75.0248 48.6646 105.862" stroke="#FBF5EB"/>
<path d="M167.145 105.862C167.145 71.264 139.098 43.217 104.5 43.217C69.9022 43.217 41.8552 71.264 41.8552 105.862" stroke="#FBF5EB"/>
<path d="M180.763 105.862C180.763 63.7428 146.619 29.5986 104.5 29.5986C62.381 29.5986 28.2368 63.7428 28.2368 105.862" stroke="#FBF5EB"/>
<path d="M173.954 105.862C173.954 67.5035 142.858 36.408 104.5 36.408C66.1417 36.408 35.0461 67.5035 35.0461 105.862" stroke="#FBF5EB"/>
</svg>
